<?xml version="1.0" standalone="no"?>
<!DOCTYPE svg PUBLIC "-//W3C//DTD SVG 20010904//EN"
 "http://www.w3.org/TR/2001/REC-SVG-20010904/DTD/svg10.dtd">
<svg version="1.0" xmlns="http://www.w3.org/2000/svg"
 width="512.000000pt" height="512.000000pt" viewBox="0 0 512.000000 512.000000"
 preserveAspectRatio="xMidYMid meet">
<metadata>
Created by potrace 1.14, written by Peter Selinger 2001-2017
</metadata>
<g transform="translate(0.000000,512.000000) scale(0.100000,-0.100000)"
fill="#000000" stroke="none">
<path d="M2441 5105 c-145 -40 -245 -133 -317 -293 -1 -2 -28 -5 -61 -7 -67
-4 -131 -27 -183 -64 -36 -26 -86 -75 -99 -99 -7 -12 -15 -12 -43 -3 -46 15
-142 19 -203 8 -46 -8 -146 -50 -189 -79 -63 -43 -145 -158 -166 -232 -9 -35
-18 -44 -53 -59 -88 -36 -161 -119 -193 -218 -9 -30 -18 -55 -20 -57 -1 -2
-17 -6 -36 -8 -176 -26 -334 -170 -378 -346 -10 -40 -17 -48 -41 -53 -16 -4
-51 -28 -78 -54 -67 -65 -82 -116 -80 -264 1 -124 18 -179 71 -238 27 -29 90
-65 128 -73 24 -5 27 -13 60 -183 19 -98 35 -181 35 -185 0 -17 38 -49 63 -54
27 -6 29 -10 42 -87 7 -45 16 -88 20 -96 5 -10 -4 -25 -27 -47 -28 -27 -34
-38 -29 -61 3 -15 8 -41 11 -58 3 -16 7 -41 10 -55 3 -14 8 -41 11 -60 4 -19
8 -42 10 -50 63 -327 87 -448 99 -505 8 -38 16 -81 18 -95 5 -24 62 -320 72
-370 16 -80 27 -139 32 -165 3 -16 29 -151 58 -300 30 -148 59 -299 65 -334
15 -86 50 -152 102 -193 86 -68 -24 -63 1388 -66 1282 -2 1285 -2 1341 18 62
24 121 75 149 130 16 32 37 114 55 220 3 19 26 139 51 265 62 318 112 575 118
605 2 14 11 59 19 100 9 41 19 91 22 110 3 19 10 53 15 75 5 22 11 56 14 75 3
19 8 44 10 55 9 42 86 435 102 522 19 101 12 140 -26 150 -24 6 -24 4 -1 117
16 83 19 90 45 97 51 14 65 38 80 139 5 34 40 212 51 257 4 15 20 26 57 39 69
23 140 94 158 160 8 27 13 96 13 163 0 98 -3 123 -22 162 -28 58 -70 102 -124
128 -36 18 -45 28 -56 68 -31 108 -98 203 -186 263 -42 29 -139 67 -190 74
-16 2 -32 5 -35 5 -3 1 -6 10 -7 22 -3 36 -59 143 -94 178 -41 41 -117 91
-139 91 -11 0 -20 16 -29 49 -31 122 -157 248 -291 291 -82 26 -210 31 -264
11 -28 -11 -31 -9 -73 38 -68 78 -176 130 -266 127 -37 -2 -39 0 -76 69 -59
106 -164 194 -269 225 -63 19 -192 21 -251 5z"/>
</g>
</svg>
